<svg xmlns="http://www.w3.org/2000/svg" viewBox="0 0 67.51 54.09"><defs><style>.cls-1{fill:#06f;}</style></defs><g id="Layer_2" data-name="Layer 2"><g id="Layer_1-2" data-name="Layer 1"><path class="cls-1" d="M.1,18.74,33.66,0a.21.21,0,0,1,.19,0L67.42,18.74a.19.19,0,0,1-.1.35H61.44a.19.19,0,0,0-.18.19V52.44a1.65,1.65,0,0,1-1.65,1.65H40a.18.18,0,0,1-.18-.19V36.78a.2.2,0,0,0-.19-.19H27.93a.19.19,0,0,0-.18.19V53.9a.19.19,0,0,1-.19.19H7.91a1.65,1.65,0,0,1-1.65-1.65V19.28a.2.2,0,0,0-.19-.19H.19A.19.19,0,0,1,.1,18.74Z"/></g></g></svg>